PathFileType	4	(X/Y/Z)	C:\Users\WrightLab\Desktop\Jo\P4V116.trc
DataRate	CameraRate	NumFrames	NumMarkers	Units	OrigDataRate	OrigDataStartFrame	OrigNumFrames
100.00	100.00	       17	19	mm	100.00	1	       525
Frame#	Time	Headset_Front			Headset_Back			Headset_Left			Headset_Right			Left_Shoulder			Right_Shoulder			Sternum			C7			Left Elbow			Right Elbow			Left Wrist			Right Wrist			Left ASIS			Right ASIS			S2			Left Knee			Right Knee			Left Ankle			Right Ankle			
		X1	Y1	Z1	X2	Y2	Z2	X3	Y3	Z3	X4	Y4	Z4	X5	Y5	Z5	X6	Y6	Z6	X7	Y7	Z7	X8	Y8	Z8	X9	Y9	Z9	X10	Y10	Z10	X11	Y11	Z11	X12	Y12	Z12	X13	Y13	Z13	X14	Y14	Z14	X15	Y15	Z15	X16	Y16	Z16	X17	Y17	Z17	X18	Y18	Z18	X19	Y19	Z19	

1	0.000																									235.69286	1145.70081	-1443.98291				170.60051	871.39117	-1310.99451				101.21699	997.52509	-1428.02954							112.04594	505.93045	-1509.35559	-287.98172	548.10327	-1397.04932							
2	0.010																									232.55399	1146.13123	-1438.75256				166.06946	872.40900	-1305.75183				100.07398	995.82489	-1427.32751							109.35802	507.85284	-1504.09985	-292.07516	550.75555	-1390.77588							
3	0.020																									230.31325	1147.12830	-1434.44446				161.18901	872.93945	-1300.29956				97.92315	996.04883	-1425.46533							107.26717	509.47421	-1501.35144	-296.29688	554.03906	-1382.43262							
4	0.030																									226.80954	1147.13623	-1428.32422				157.19571	873.25397	-1293.70947				95.22177	994.64325	-1425.11462							106.15427	508.17685	-1504.00061	-300.16293	554.96112	-1379.96375							
5	0.040																									225.14188	1146.46301	-1420.36023				150.80292	873.75616	-1287.32263				94.15726	993.44568	-1427.44397							104.93098	506.51648	-1507.72827	-303.72296	556.36261	-1377.43079							
6	0.050																									222.11273	1146.71167	-1414.62012				146.00954	874.93243	-1281.84021				91.37083	993.23700	-1421.74133							103.20380	507.12988	-1505.94275	-308.41663	557.71631	-1374.39087							
7	0.060																									219.48589	1147.03198	-1408.86853				142.08066	875.50922	-1275.24988				88.68915	993.22296	-1415.93359	-239.99669	1015.37006	-1457.12610				101.55795	507.29266	-1503.26257	-312.13849	558.26544	-1372.76367							
8	0.070																									215.78563	1146.10181	-1400.74585				136.77031	876.23889	-1267.97266				86.93325	992.91071	-1412.26074	-243.11516	1014.56909	-1454.97278				99.77393	507.89471	-1499.08215	-315.95410	558.81116	-1370.00989							
9	0.080																									212.13297	1146.82800	-1396.19043				131.62030	877.58856	-1260.55078				83.88723	993.63403	-1406.08081	-246.36487	1013.73169	-1453.70544				98.18111	508.94104	-1495.79919	-321.31079	559.52545	-1367.78821							
10	0.090																									208.88631	1146.76917	-1389.94409				125.39260	879.12048	-1253.90601				82.19616	992.53436	-1406.56543	-247.85515	1012.82703	-1453.92236				96.92674	508.47360	-1493.70679	-324.61337	559.93427	-1365.89307							
11	0.100																									205.42732	1145.53796	-1381.26672				120.45992	879.84851	-1246.59265				78.47978	991.76123	-1404.15100	-250.73549	1014.42145	-1448.07556				94.68774	508.56998	-1489.79431	-329.87613	560.71161	-1363.55103							
12	0.110																									201.97575	1145.62549	-1375.30347				115.15569	880.67944	-1238.38684				76.20029	989.04095	-1403.81433	-251.99159	1013.74219	-1446.77136				93.62926	506.85883	-1491.80286	-334.79349	560.59943	-1361.15039							
13	0.120																									197.60921	1145.47339	-1369.17554				108.65743	882.29108	-1230.65918				73.60925	989.29700	-1398.99927	-254.98749	1013.11682	-1443.87415				91.06825	506.62915	-1489.93152	-339.47086	560.52057	-1359.18176							
14	0.130																									193.63803	1145.05188	-1362.51648				102.34580	883.88031	-1223.25708				70.16898	989.49396	-1390.90747	-258.75647	1010.28314	-1444.60767				89.07849	505.48376	-1490.62219	-344.94968	560.66376	-1357.17261							
15	0.140																									189.04691	1145.05176	-1356.99841				95.93240	884.77545	-1214.52905				66.72441	989.52264	-1384.12085	-261.49725	1010.08826	-1440.67029				87.11012	505.43964	-1488.31372	-349.12131	560.17877	-1354.20227							
16	0.150																									185.29819	1143.38025	-1347.84009				88.71011	885.73657	-1206.61499				63.98346	987.53546	-1386.15662	-264.46246	1010.72021	-1434.79492				84.38652	506.73877	-1481.92993	-355.14853	561.46069	-1351.86475							
17	0.160																									180.20380	1144.13123	-1344.11340				82.36584	886.58173	-1198.58337				59.37806	985.75391	-1381.93787	-267.34805	1009.99390	-1433.25037				81.59423	507.38831	-1475.36707	-359.35941	560.77045	-1349.51892							
